# xmcd
#
# Track frame offsets: 
#        150
#        25073
#        42150
#        68580
#        90085
#        114635
#        134045
#        149033
#        165465
#        195178
#
# Disc length: 3024 seconds
#
# Revision: 3
# Processed by: cddbd v1.5.2PL0 Copyright (c) Steve Scherf et al.
# Submitted via: ExactAudioCopy v1.0b3
#
DISCID=7f0bce0a
DTITLE=Son Tuyen - Than Phan
DYEAR=1993
DGENRE=
TTITLE0=Ruoc tinh ve voi que huong
TTITLE1=Nguoi yeu co don
TTITLE2=Than phan
TTITLE3=Ly qua deo
TTITLE4=Chiec ao que huong
TTITLE5=Tinh ca tren lua
TTITLE6=Gui nguoi ngan dam
TTITLE7=Loi ve xom nho
TTITLE8=Co lai do ben Ha
TTITLE9=Huyen su nguoi mang ten Quoc
EXTD=
EXTT0=
EXTT1=
EXTT2=
EXTT3=
EXTT4=
EXTT5=
EXTT6=
EXTT7=
EXTT8=
EXTT9=
PLAYORDER=
